<?xml version="1.0" encoding="UTF-8"?>
<svg id="Layer_1" data-name="Layer 1" xmlns="http://www.w3.org/2000/svg" viewBox="0 0 181.06 395.04">
  <defs>
    <style>
      .floral-stroke {
        fill: none;
        stroke: rgba(200, 230, 210, 0.12);
        stroke-linecap: round;
        stroke-linejoin: round;
        stroke-width: 2px;
      }
    </style>
  </defs>
  <path class="floral-stroke" d="M91.06,138.84c.89-1.15.59-2.52.46-3.74-.94-9.2-2.36-18.34-5-27.21-2.95-9.92-6.5-19.62-12.46-28.23-3.82-5.52-8.16-10.58-13.25-14.99-3.18-2.76-6.17-5.73-9.77-7.97-.8-.5-1.67-1.19-2.95-.38,2.42,1.9,4.56,3.98,6.51,6.31,3.8,4.54,5.77,9.74,6.17,15.52.54,7.92,1.45,15.73,4.27,23.22,1.72,4.57,4.09,8.71,7.77,11.97,6.57,5.83,11.45,12.88,15.25,20.73.15.3.49.51.74.76"/>
  <path class="floral-stroke" d="M96.81,1c-4.15,5.89-4.16,12.53-3.21,19.22.87,6.11,2.19,12.16,3.08,18.25.55,3.73.26,7.63-.09,11.47-.75,8.24-4.54,15.6-6.53,23.47-1.64,6.5-1.78,13,1.03,19.21,2.61,5.76,3.71,11.87,4.66,18.01,1.47,9.5,2.27,19.08,2.02,28.71-.19,7.49-.56,14.97-2.7,22.23-.2.69-.05,1.49-.03,2.24"/>
  <path class="floral-stroke" d="M100.06,255.71c-.42-2.64.23-5.19,1.31-7.46,2.74-5.77,4.98-11.73,5.87-18.02,1.47-10.47.94-20.77-4.72-30.18-.3-.5-.37-1.16-.95-1.54-.44-.29-.77-.74-1.15-1.12-.91.9-.66,1.74-.37,2.64,2.62,8.21,1.97,16.37-.5,24.46-1.93,6.32-2.37,12.64-.21,18.97.6,1.75.36,3.76,1.72,5.25"/>
  <path class="floral-stroke" d="M91.31,171.8c1.34-.78,1.47-2.3,1.95-3.51,1.84-4.63,4.92-8.61,6.82-13.21,3.11-7.53,6.87-14.79,11.57-21.42,3.01-4.25,7.33-7.2,12.9-7.57.98-.06,1.85.22,2.75.5,7.08,2.23,14.24,3.75,21.75,3.55,5.89-.16,10.79-2.48,15.24-6.05,1.07-.86.61-1.76-.5-1.94-3.69-.61-6.59-2.81-9.79-4.45-2.26-1.15-4.88-1.83-7.46-2.04-3.57-.29-7.1-.99-10.75-.6-6.87.72-12.85,3.12-16.9,8.86-1.12,1.59-3.14,2.83-3.1,5.18"/>
  <path class="floral-stroke" d="M85.56,136.59c.58-1.46-.7-2.45-1.33-3.18-8.38-9.87-17.67-18.68-29.42-24.55-4.14-2.07-11.16-3.5-14.2-2.68,1.01,1.04,2.07,1.58,3.42,2.01,5.61,1.75,9.65,5.58,12.76,10.43,2.19,3.42,4.92,6.27,8.51,8.23,2.12,1.16,4.35,2.23,6.75,2.45,4.38.41,7.45,3.06,10.78,5.49,4.86,3.55,7.05,8.51,8.45,14.04.08.33.16.52.51.5"/>
  <path class="floral-stroke" d="M14.56,263.95c3.49-1.05,7.05-1.92,9.51-4.98,1.79-2.21,3.12-4.65,4.25-7.25,3.98-9.19,14.42-14.93,24.48-13.48,3.81.55,6.89,2.59,10.04,4.68,6.35,4.21,9.65,10.8,13.64,16.83.78,1.17.24,2.95.33,4.45.59,9.25,3.17,18.06,6.31,26.69,1.32,3.63,2.28,7.46,4.44,10.75.4.61.37,1.3.19,1.74-3.36,8.27-3.81,16.98-4.25,25.73-.4,7.74-.59,15.48-.69,23.23-.13,9.71,1.68,19.16,4.26,28.46,1.27,4.55,2.9,8.98,4.97,13.24"/>
  <path class="floral-stroke" d="M178.81,150.58c-1.38-3.52-4.74-4.4-7.77-5.44-6.79-2.32-13.83-2.75-20.98-2.33-9.69.56-18.57,3.91-27.21,7.85-5.5,2.51-10.08,6.63-14.47,10.73-2.97,2.77-6.33,5.14-8.83,8.41-.59.77-1.41,1.38-1.23,2.51"/>
  <path class="floral-stroke" d="M94.56,4.25c-2.55,1.57-3.37,4.34-4.76,6.73-3.82,6.59-5.5,13.81-6.81,21.22-.89,5.06-1.45,10.15-1.62,15.25-.28,8.59,1.41,16.96,3.66,25.23.96,3.51,1.77,7.06,3.02,10.48"/>
  <path class="floral-stroke" d="M180.06,151.83c-2.75-1.82-5.42-3.79-8.75-4.49-3.57-.75-6.89.3-9.98,1.79-7.05,3.42-13.64,7.67-20,12.22-5.28,3.77-11.16,5.62-17.52,5.65-6.69.04-13.29.15-19.51,3.04-.34.16-.82.02-1.24.02"/>
  <path class="floral-stroke" d="M57.06,175.3c.1-.95-.73-1.37-1.27-1.71-5.21-3.25-7.89-8.18-10.05-13.74-3.23-8.31-8.98-14.05-17.9-16.61-4.88-1.4-9.24-1.04-13.52,1.37-1.91,1.08-3.98.99-6.02,1.21-3.7.4-4.29,1.49-2.51,4.77.32.59.64,1.21,1.03,1.72,2.25,2.97,3.55,6.24,3.44,10.28-3.06,2.47-6.11,5.28-8.45,8.73-.94,1.38-1.06,2.7.17,4.28,2.13,2.74,4.51,5.24,7.35,7.14,3.47,2.32,7.36,3.06,11.47,1.58.44-.16.99-.41,1.49-.02"/>
  <path class="floral-stroke" d="M142.06,191.28c-1.41,2.57-2.02,5.36-2.23,8.24-.16,2.26-1.6,3.56-3.27,4.74-3.64,2.57-7.78,4.27-11.53,6.7-6.61,4.28-10.68,10.31-13.54,17.5-2.12,5.35-4.25,10.7-5.62,16.27-1.32,5.38-3.91,9.94-7.58,13.95-1.29,1.41-2.12,3.14-3.43,4.56-1.31,1.41-.67,3.49-.71,5.2-.27,9.84-2.67,19.27-5.11,28.71-.35,1.35-.39,2.8-1.23,4"/>
  <path class="floral-stroke" d="M70.31,250.71c-.32-.13-.53.47-.74.24-2.58-2.88-6.04-2.47-9.26-2.16-3.75.36-6.72,2.33-8.78,5.65-2.46,3.95-5.31,7.6-9.23,10.25-4.61,3.12-9.68,4.17-15.25,3.82-5.05-.32-9.98-1.39-15-1.81-1.02-.09-1.94-.39-2.87-1.03,1.34-1.22,3.13-1.28,4.48-1.13,6.01.67,10.49-2.13,14.63-5.86,2.54-2.29,4.38-5.22,7.22-7.28,3.94-2.85,8.42-3.82,13.04-4.38,1.18-.14,2.3-.57,3.49-.57"/>
  <path class="floral-stroke" d="M65.56,75.41c7.23,10.36,13.09,21.42,17,33.46,2.57,7.9,5.18,15.81,6.67,23.99.55,3.04,1.69,5.83,2.57,8.73.47,1.54.69,3.14.49,4.74-.56,4.58.78,9.13.09,13.75-.37,2.49-1,4.97-1.04,7.48-.07,4.96-1.8,9.54-3.05,14.23-.19.7-.81,1.34.02,2"/>
  <path class="floral-stroke" d="M53.31,178.3c-2.22,1.7-2.58,4.35-3.21,6.75-2.46,9.38-8.81,15.46-16.8,20.21-1.92,1.14-4.17,1.18-6.22,1.83-2.86.91-5.64,2.17-8.27,3.68-.82.47-1.56,1.28-2.5.26-.23-1.29.96-1.78,1.55-2.47,1.83-2.15,2.47-4.58,2.44-7.29-.03-3.11,1.12-5.63,4.02-6.94,1.26-.56,2.01-1.37,1.91-2.54-.12-1.43-1.35-1.87-2.69-1.74-1.57.15-1.75-.73-1.77-2.01-.09-4.52,2.87-7.01,5.99-9.53,1.89-1.52,3.95-2.29,6.28-2.45,4.44-.3,8.75-1.65,13.25-1.53,3.94.11,7.97.34,11.7,1.23,3.16.76,6.25,2.86,8.54,5.54,11.33,13.2,19.76,27.94,24.04,44.93,1.66,6.58,2.18,13.25,2.5,19.98.27,5.58.26,11.16.72,16.73"/>
  <path class="floral-stroke" d="M82.81,204.27c-1.61,3.4-2.03,7.13-2.7,10.75-1.54,8.34-2.94,16.72-3.25,25.21-.21,5.74-.47,11.48-.31,17.23,0,.41.23.91-.24,1.25"/>
  <path class="floral-stroke" d="M156.06,146.33c-4.55-.11-8.93,1.08-12.96,2.83-10.53,4.57-21.31,8.65-31.26,14.45-3.28,1.91-6.84,3.55-9.3,6.67-.67.84-1.85,1.1-2.76,1.71-7.76,5.24-12.35,12.52-14.49,21.52-.7,2.94-1.09,5.99-2.48,8.75"/>
  <path class="floral-stroke" d="M118.31,111.37c2.3-2.71,3.59-6.07,5.95-8.78,3.96-4.55,9.03-6.52,14.8-7.2,2.02-.24,3.31.6,4.3,2.47,1.57,2.96,2.6,2.98,4.95.53,3.01-3.15,7.23-3.35,11.24-.49.86.62,1.71,1.14,2.71,1.59,2.73,1.22,4.84.65,6.93-1.49.88,1.42.71,2.68.14,4.15-2.56,6.57-6.49,11.8-13.27,14.49-.67.26-1.42,0-2.01.48"/>
  <path class="floral-stroke" d="M98.06,177.8c5.54-1.01,9.89,1.64,14.57,4.1,5.8,3.05,12.26,4.08,18.66,1.36,3.79-1.61,7.78-2.11,11.77-2.69,1.57-.23,3.09-.52,4.55-1.24-.88-.59-1.83-.81-2.8-.77-7.99.31-15.46-2.09-23.02-4.2-4.7-1.31-9.42-2.83-14.49-1.6-3.46.84-6.54,2.33-9.21,4.57-2.44,2.05-5.08,3.88-7.27,6.22-.5.53-.99.92-1.76.74"/>
  <path class="floral-stroke" d="M141.81,192.78c.75,3.52-.23,6.9-1.04,10.23-3.47,14.37-9.92,27.12-20.7,37.48-.24.23-.61.17-.76.49"/>
  <path class="floral-stroke" d="M114.06,93.64c-3.39-3.63-7.15-6.81-11.54-9.32-2.03,1.15-2,3.39-2.11,5.08-.34,5.46-.28,10.95,1.63,16.23.76,2.1,2.02,3.88,3.52,5.48,1.45,1.55,2.88,3.14,4.51,4.48,2.79,2.28,3.67,5.07,3.01,8.53-.13.69-.35,1.54.21,2.24"/>
  <path class="floral-stroke" d="M141.06,95.39c2.42-1.62,4.86-3.34,5.7-6.26.96-3.33,1.05-6.64-1.16-9.75-2.11-2.96-3.97-6.08-6.5-8.75-1.94-2.05-4.01-2.49-6.53-1.47-3.05,1.23-6.22,2.17-9,3.99-4.71,3.08-7.14,7.59-7.96,12.99-.39,2.54-.92,5.13-.31,7.74.07.3-.1-.05-.25.24-.07.13-.32,0-.48-.24"/>
  <path class="floral-stroke" d="M45.56,139.09c.2-1.93.93-3.44,3-4,1.5-.41,1.31-2.14,2.66-3.39,2.23,5.54,6.73,9.69,7.38,15.88.53,5.03-.11,9.92-1.33,14.73-1.09,4.27-2.4,8.43,1.52,12.02.17.15.02.64.02.98"/>
  <path class="floral-stroke" d="M134.06,213.76c-3.74,3.57-6.73,7.77-9.98,11.75-5.33,6.51-10.67,13.01-15.78,19.7-1.22,1.6-1.84,3.68-3.74,4.75"/>
  <path class="floral-stroke" d="M56.06,176.05c-1.91.53-2.55,1.79-2.54,3.75,0,3.74.37,7.51-.23,11.23-.87,5.45-1.98,10.69-7.69,13.58-2.18,1.1-3.4,3.59-4.23,5.93-.35.99-.88,1.82-1.5,3.09-.63-4.08-.25-7.88-.82-11.61"/>
  <path class="floral-stroke" d="M137.31,95.14c1.27-5-.26-9.37-2.99-13.49-.49-.73-1.28-1.21-1.7-.46-1.17,2.07-3.18,1.42-4.82,1.67-6.62,1.01-9.54,3.61-11.27,10.28-.06.21-.32.57-.73.51"/>
  <path class="floral-stroke" d="M87.81,303.9c2.8,5.09,4.84,10.51,6.77,15.98,1.99,5.65,3.55,11.42,4.98,17.24"/>
  <path class="floral-stroke" d="M122.06,73.67c-.41-2.02-.83-4.05-1.53-5.98-.6-1.67-2.49-2.37-3.96-1.49-5.75,3.43-8.96,8.44-9.27,15.21-.09,1.91.27,3.85-.24,5.74"/>
  <path class="floral-stroke" d="M5.06,180.04c-.95.75-2.17,1.08-3,2-1.41,1.57-1.51,2.7.29,3.67,2.53,1.38,2.43,3.32,1.96,5.56-.41,1.98.6,3.46,3.25,4.74,3.93,1.91,8.08,1.68,12.25,1.23.41-.04.64.29,1,.27"/>
  <path class="floral-stroke" d="M25.81,142.09c-.33-1.91-.58-3.77.73-5.51,1.87-2.48-.01-4.31-1.33-6.22.66-1.14,1.53-1.08,2.6-.77,7.98,2.33,15.02,6.04,20.01,12.99,2.11,2.94,3,6.23,3.23,9.75.35,5.35,1.7,10.47,3.51,15.48.23.63.63,1.16,1.24,1.5"/>
  <path class="floral-stroke" d="M10.56,163.06c4.31,7.34,10.51,12.02,19,13.48"/>
  <path class="floral-stroke" d="M147.06,80.66c2.11-2,4.72-2.6,7.5-2.45,1.14.06,2.59.22,2.04,2.21-.37,1.34.61,2.09,1.7,2.75,5.74,3.48,5.35,10.7,1.51,14.22"/>
  <path class="floral-stroke" d="M115.31,94.39c2.36,5.34,2.72,11.03,2.69,16.73,0,2.3-1.36,4.44-1.67,6.75-.57,4.22-2.74,7.91-3.86,11.96-.26.92-.42,1.52.09,2.27"/>
  <path class="floral-stroke" d="M118.81,241.47c-3.81,3.32-7.76,6.48-12.01,9.22-.87.56-1.77,1.34-2.99,1.02"/>
</svg>
