<?xml version="1.0" encoding="UTF-8"?>
<svg id="Layer_1" xmlns="http://www.w3.org/2000/svg" viewBox="0 0 365 253">
  <path fill="#7FA694" fill-opacity="0.35" d="M365,163.41v1.38l-62.62-14.69-50.89-12.42c-8.83-2.15-20.78-10.77-29.17-14.42-10.6-4.61-21.8-7.46-33.29-9.09-5.88-.83-11.63.25-17.18,1.84l-21.3,6.11-.04,8.26,6.29.44c3.53.25,6.01-1.29,8.67-3.23,5.96-4.36,13.54-4.91,20.05-1.69,10.28,5.08,14.6-2.16,21.65,2.85,5.33,3.79,8.75.17,12.56,5.62,4.18,5.99,4.38,13.76-.11,19.71-.61.8-.78,2.01-.46,2.98.22.66.82,1.49,1.93,1.94l53.27,21.67,58.07,23.8c2.05.84,15.59,6.67,14.97,8.26-1.71,4.4-69.47-24.31-75.79-27.18l-38.64-17.57-14.42-8.35c-10.07-5.83-21.18-8.89-32.49-11.21-11.44-2.34-21.39.85-33.55,2.04-4.07.4-7.99.2-12.05.39s-7.91-.34-11.95-.28l-9.52.12c-4.02.05-7.9.04-11.75.97-4.14,1-6.57,4.59-5.7,8.93.76,3.8,3.36,7,6.64,9.21,2.72,1.84,5.56,4.15,8.83,5,11.61,3,26.14,1.44,32.98,4.16.88.35,1.47,1.01,1.54,1.84s-.56,1.69-1.55,2.19c-9.92,5.02-25.27-3.09-34.56-6.9-3.92-1.61-7.97-2.47-11.32-5.24-7.37-6.1-5.85-15.59-10.67-17.34-3.92-1.42-8.68-1.24-12.52.4-1.89.97,3.39,9.71,3.91,10.33l6.61,7.86c4.38,5.2,8,10.8,13.04,15.39l16.19,14.77c.57.52.93,1.36.8,1.87-.23.92-1.37,1.03-2.26.5-7.1-4.18-12.88-9.77-18.54-15.84-6.64-7.11-11.69-14.98-17.09-23.54-1.4,1.55-.55,3.55-.04,5.26,4.34,14.59,16.76,28.05,28.73,37.18s25.11,16.99,38.92,23.43c5.18,2.41,10.37,2.78,15.72,1.08,13.18-4.2,27.95-12.04,41.23-15.53,4.58-1.2,9.15-1.67,13.8-.7,5.8,1.22,11.03,3.18,16.4,5.69l36.39,17.03,31.79,14.27h-3.94l-45.48-21.04c-9.69-4.48-18.83-9.06-28.75-12.72-7.34-2.71-14.45-3.02-21.84-.61-8.67,2.82-16.87,6.15-25.29,9.69-4.38,1.84-8.54,3.5-13.02,5.03-5.81,1.98-11.55,1.9-17.32-.78-14.46-6.73-28.08-14.82-40.68-24.67-8.6-6.73-15.9-14.28-21.72-23.39-2.47-3.87-9.82-17.04-5.86-20.69-.66-2.26-6.59-10.23-1.44-11.63,3.9-1.06,8-1.19,11.95-.35,4.66.99,4.78,6.57,6.89,9.71-.66-5.31,1.6-10.25,7.12-11.29-2.77-.97-5.05.12-7.59.21-3.52.12-11.32.83-13.21-2.21-.69-1.11-.63-2.47-.3-3.76.98-3.78,4.62-6.17,8.61-6.39,5.35-.3,10.44-.04,15.94-.07,1.35,0,4.28.56,4.99-.82,1.6-3.12,3.2-6.02,6.66-7.52,8.77-3.81,14.96-4.91,24.22-7.92-1.37-5.28-4.33-9.68-7.78-14.03-5.28-6.66-8.88-14.49-8.66-23.11.02-.8,1.57-1.68.94-2.29l-1.59-1.56c-3.36-3.29-2.05-10.27-3.18-15.59-2.17.07-15.89,1.87-16.1-.02-.04-.4-.26-1.14.04-1.54l4.47-6.01c3.44-4.62,8.81-3.78,13.35-1.18,1.22-3.02-.03-8.76,4.01-8.69-.67-1.43-1.68-2.84-1.58-4.74l.39-7.9c-3.94-.04-8.05.81-10.85-3.58-1.85-2.91-2.96-6.31-3.38-9.9,3.44-.5,6.59.84,9.48,1.74,4.78,1.48,5.61,5.57,6.54,9.78.68,3.09,2.91-.61,2.18,12.56,2.64-2.04,2.9-4.98,4.94-7,2.74-2.71,6.79-3.56,10.79-3.03-.08,3.89-1.3,7.72-3.67,10.66-3.16,3.92-8.23,4.67-13.29,3.29-2.69,9.12-3.44,18.93-1.84,28.57l4.72-4.3c2.66-2.42,6.28-2.41,9.55-.82,4.84,2.36,9.88,3.05,15.13,1.52.91-.26,2.15-.38,3.02.5-7.61,7.21-13.52,12.1-24.27,9.65-2.26-.51-4.45-1.3-6.98-.69.9,5.18,2.43,10,4.43,14.76,4.52,10.74,11.12,11.34,13.11,21.84,10.97-2.97,28.95-9.71,39.44-7.93s22.24,3.58,32.07,8.8l21.22,11.28c2.6,1.38,5.01,2.48,7.91,3.21l31.19,7.81,82.76,19.58ZM130.9,33.25c-.19-8.18-6.24-9.35-12.79-10.33.57,2.51,1.32,4.51,2.37,6.68,2.09,4.34,5.81,4.65,10.43,3.65ZM144.18,46.89c3.05-2.46,4.32-6.15,4.76-9.79-8.34,0-8.45,2.97-11.22,7.61-.95,1.6-2.57,1.82-4.04,3.38,3.49,1.01,7.5,1.22,10.5-1.2ZM125.64,63.46c.56-1.05-.07-3.02,1.14-3.69,1.08-.6,1.74.55,2.73,1.27l2.23-10.72c0-1.09-1.12-1.1-1.27-.01-.65,2.65-.51,5.37-1.53,7.65-1.11.5-2.75-.67-3.61-1.13-3.6-1.93-7.31-1.44-9.69,1.82-1.4,1.92-3.05,3.56-4.19,5.81,4.82.09,9.72.32,14.2-.99ZM160.22,76.57c-5.52.43-10.04.16-14.69-2.1-6.28-3.05-8.99,1.36-12.48,4.64-.65.61-1.79,2.77-.4,3,2.26.36,4.43.41,6.74,1.01,8.85,2.29,14.26-.24,20.82-6.55ZM144.82,134.24c-4.74-.65-9.77-.08-13.8,2.31-5.57,3.31-9.58,11.75-14.12,8.46-5.92-4.28,14.88-15.78,20.06-15.59l9.74.35c.41-2.22.46-4.33-.09-6.46l-15.09,4.33c-3.72,1.07-7.26,2.27-10.51,4.41-1.65,1.09-2.66,2.81-3.38,4.64-2.27,5.78-12.5.39-24.87,3.15-3.17.71-6.48,4.08-5.34,7.42,1.71,4.43,26.32.05,31.01-.82,9.57-1.76,19.03-3.88,26.39-12.21ZM189.03,147.57c9.85,2.11,18.95,5.69,28.22,9.65.32-1.86.66-3.2,1.54-4.42,3.8-5.26,3.41-11.77.08-17.14s-6.1-1.43-12.36-5.68-11.13,2.42-21.66-2.79c-6.42-3.17-13.95-2.25-19.47,2.16-5.01,4.01-9.27,2.51-14.4,2.63-2.64.06-4.35,2.37-5.87,4.08-7.11,8.03-20.7,11.39-31.13,12.61,1.3,1.04,2.85.5,4.51.54l11.05.29c13.33.35,26.28-.22,39.39-2.72,4.84-.92,14.69-.37,20.09.79ZM139.79,132.66c2.11-.13,4.25.24,6.47-.92-8.74-2.54-12.49-.82-19.79,3.27-2.26,1.27-10.68,6-8.65,8.96.39.56,1.6.74,2.36.23,5.71-3.84,7.7-10.78,19.61-11.53ZM343.57,211.47c-3.37-2.12-6.61-3.61-10.42-5.16l-71.94-29.37-28.7-11.63c.49,1.74,2.16,1.44,3.35,2.54,29.93,14.04,60.13,27.01,91.23,38.4,5.65,2.07,10.63,3.96,16.48,5.22ZM150.26,180.9c-2.79-1.83-5.73-1.87-8.56-2.03l-18.02-1.06c5.01,3.24,21.64,8.2,26.58,3.09ZM117.39,201.5l-19.48-18.56c5.17,7.27,11.58,13.67,19.48,18.56Z"/>
  <path fill="#7FA694" fill-opacity="0.35" d="M248,253H0v-.5h247.34c.56.13.71.23.66.5Z"/>
</svg>
